HIERARCHY
ROOT Hips
{
 OFFSET 0.000000 0.000000 0.000000
 CHANNELS 6 Xposition Yposition Zposition Yrotation Xrotation Zrotation
 JOINT Chest
 {
  OFFSET 0.000000 14.374500 -0.011500
  CHANNELS 3 Yrotation Xrotation Zrotation
  JOINT Chest2
  {
   OFFSET 0.000000 9.203400 0.023400
   CHANNELS 3 Yrotation Xrotation Zrotation
   JOINT Chest3
   {
    OFFSET 0.000000 9.162700 0.000000
    CHANNELS 3 Yrotation Xrotation Zrotation
    JOINT Chest4
    {
     OFFSET 0.000000 9.153300 0.000000
     CHANNELS 3 Yrotation Xrotation Zrotation
     JOINT Neck
     {
      OFFSET 0.000000 13.353600 0.000000
      CHANNELS 3 Yrotation Xrotation Zrotation
      JOINT Head
      {
       OFFSET 0.000000 8.573800 0.049400
       CHANNELS 3 Yrotation Xrotation Zrotation
       End Site
       {
        OFFSET 0.000000 16.219200 0.026100
       }
      }
     }
     JOINT RightCollar
     {
      OFFSET -2.497100 8.876100 0.000000
      CHANNELS 3 Yrotation Xrotation Zrotation
      JOINT RightShoulder
      {
       OFFSET -12.289200 0.000000 0.000000
       CHANNELS 3 Yrotation Xrotation Zrotation
       JOINT RightElbow
       {
        OFFSET 0.000000 -28.194900 0.000000
        CHANNELS 3 Yrotation Xrotation Zrotation
        JOINT RightWrist
        {
         OFFSET 0.000000 -23.009700 0.007900
         CHANNELS 3 Yrotation Xrotation Zrotation
         End Site
         {
          OFFSET 0.000000 -17.151500 0.000000
         }
        }
       }
      }
     }
     JOINT LeftCollar
     {
      OFFSET 2.497100 8.876100 0.000000
      CHANNELS 3 Yrotation Xrotation Zrotation
      JOINT LeftShoulder
      {
       OFFSET 12.289200 0.000000 0.000000
       CHANNELS 3 Yrotation Xrotation Zrotation
       JOINT LeftElbow
       {
        OFFSET 0.000000 -28.194900 0.000000
        CHANNELS 3 Yrotation Xrotation Zrotation
        JOINT LeftWrist
        {
         OFFSET 0.000000 -23.009700 0.007900
         CHANNELS 3 Yrotation Xrotation Zrotation
         End Site
         {
          OFFSET 0.000000 -17.151500 0.000000
         }
        }
       }
      }
     }
    }
   }
  }
 }
 JOINT RightHip
 {
  OFFSET -11.777600 0.056700 0.005700
  CHANNELS 3 Yrotation Xrotation Zrotation
  JOINT RightKnee
  {
   OFFSET 0.000000 -39.966000 -0.004200
   CHANNELS 3 Yrotation Xrotation Zrotation
   JOINT RightAnkle
   {
    OFFSET 0.000000 -41.981900 0.027400
    CHANNELS 3 Yrotation Xrotation Zrotation
    JOINT RightToe
    {
     OFFSET 0.000000 -9.910600 16.950100
     CHANNELS 3 Yrotation Xrotation Zrotation
     End Site
     {
      OFFSET 0.000000 -1.461000 6.191600
     }
    }
   }
  }
 }
 JOINT LeftHip
 {
  OFFSET 11.777600 0.056700 0.005700
  CHANNELS 3 Yrotation Xrotation Zrotation
  JOINT LeftKnee
  {
   OFFSET 0.000000 -39.966000 -0.004200
   CHANNELS 3 Yrotation Xrotation Zrotation
   JOINT LeftAnkle
   {
    OFFSET 0.000000 -41.981900 0.027400
    CHANNELS 3 Yrotation Xrotation Zrotation
    JOINT LeftToe
    {
     OFFSET 0.000000 -9.910600 16.950100
     CHANNELS 3 Yrotation Xrotation Zrotation
     End Site
     {
      OFFSET 0.000000 -1.461000 6.191600
     }
    }
   }
  }
 }
}
MOTION
Frames: 15
Frame Time: 0.008333
0.377042 130.430376 55.736340 178.126881 -45.900097 -3.059863 3.912568 26.354435 3.940821 0.517194 4.513015 0.538843 0.849392 7.137292 0.857550 3.011938 21.529749 2.992911 -1.046387 8.521738 -4.871274 0.024704 -16.765616 -5.157916 0.903948 -3.315605 0.399087 3.876118 -16.399094 -2.490539 37.439628 -71.377380 -29.338049 26.032185 18.995006 2.627175 -11.076329 -5.678435 -0.468179 0.798418 -14.277308 2.077554 1.240462 -68.432457 -24.703332 -8.757882 2.096716 2.760567 7.134641 -31.215578 0.120821 -81.512662 83.197922 -85.355931 0.277303 -25.179871 9.948990 0.005348 -0.009598 0.003126 -2.730261 -27.777869 -4.500791 109.905715 78.061417 118.754901 6.363083 -11.813194 -7.515206 -0.006422 0.001932 -0.003755
0.378423 130.429907 55.732689 178.092298 -45.876583 -3.022851 3.907786 26.396873 3.968717 0.522154 4.510902 0.531689 0.849705 7.152778 0.864534 3.013665 21.569866 3.036088 -1.107089 8.102660 -5.238561 0.048047 -17.198234 -5.555990 0.772020 -3.174038 0.355921 3.246865 -16.047745 -2.081087 40.491751 -73.576806 -32.067791 25.855117 18.852543 2.061584 -10.951687 -5.515728 -0.399211 1.652176 -13.839855 1.841525 8.196795 -69.567756 -32.663265 -7.687194 0.900368 3.432272 7.177166 -31.241110 0.087028 -81.544717 83.207020 -85.378023 0.286237 -25.173797 9.946862 0.005855 -0.009676 0.003423 -2.661881 -27.785790 -4.554414 109.847995 78.050468 118.717677 6.384842 -11.827084 -7.497882 -0.023791 0.002332 -0.013911
0.381112 130.428474 55.730508 178.064089 -45.848434 -2.993102 3.913087 26.408276 3.979163 0.524185 4.503272 0.525774 0.854283 7.198938 0.886167 3.024020 21.610625 3.072296 -1.183090 7.696569 -5.583254 0.051086 -17.619257 -5.933458 0.615473 -3.042524 0.330214 2.662827 -15.722474 -1.699793 44.583140 -75.676255 -35.803351 25.560910 18.624190 1.464917 -10.821107 -5.363444 -0.299210 2.470705 -13.426351 1.620811 15.459895 -70.452332 -41.059821 -6.719406 -0.424980 4.132500 7.209166 -31.271904 0.053523 -81.583450 83.212661 -85.402654 0.294609 -25.164352 9.949200 0.004254 -0.005750 0.002487 -2.621834 -27.808128 -4.574865 109.831208 78.050810 118.708439 6.382385 -11.832717 -7.490465 -0.024060 -0.003160 -0.014068
0.385261 130.426974 55.728976 178.031452 -45.821146 -2.963752 3.928988 26.393447 3.977493 0.528839 4.564437 0.553686 0.859637 7.198406 0.881412 3.038463 21.627347 3.084625 -1.265931 7.335639 -5.889933 0.037398 -18.019121 -6.289927 0.441839 -2.905681 0.337835 2.141756 -15.423821 -1.350092 49.935981 -77.626057 -40.791458 25.111662 18.282947 0.894202 -10.692016 -5.202132 -0.165596 3.215305 -13.046500 1.404943 22.711821 -71.137194 -49.499489 -5.890920 -1.784542 4.804613 7.244877 -31.309523 0.013549 -81.652441 83.233427 -85.452693 0.307253 -25.155599 9.946718 -0.002704 -0.009093 -0.001581 -2.586672 -27.830908 -4.575820 109.840397 78.060825 118.718197 6.373722 -11.838735 -7.483706 -0.017743 -0.006772 -0.010374
0.389676 130.424266 55.729150 177.979487 -45.789085 -2.919806 3.962430 26.409219 3.991956 0.538851 4.580336 0.557659 0.863972 7.196817 0.877763 3.055994 21.641667 3.093340 -1.351803 7.005205 -6.181978 0.016727 -18.387783 -6.630257 0.262875 -2.787521 0.352659 1.683889 -15.151965 -1.040744 56.891098 -79.383773 -47.384545 24.519097 17.831415 0.394237 -10.569577 -5.057904 -0.022250 3.881864 -12.711440 1.193681 29.736021 -71.717961 -57.705589 -5.212131 -3.122292 5.463033 7.287080 -31.347930 -0.009149 -81.702193 83.237267 -85.483242 0.309382 -25.157427 9.934941 0.004356 -0.001754 0.002547 -2.548194 -27.858659 -4.558733 109.883397 78.070945 118.726669 6.364636 -11.862958 -7.451113 -0.020991 -0.006390 -0.012272
0.395290 130.425099 55.726491 177.961814 -45.777148 -2.902889 3.981337 26.439849 4.008116 0.537863 4.559299 0.549056 0.872927 7.223395 0.887652 3.069667 21.653107 3.097480 -1.432874 6.711551 -6.465110 -0.000796 -18.717597 -6.962296 0.097200 -2.688265 0.365253 1.267329 -14.908715 -0.775965 65.905971 -80.908918 -56.025383 23.865444 17.333528 -0.022781 -10.446823 -4.935723 0.119081 4.466147 -12.428594 1.004993 36.390247 -72.327288 -65.480308 -4.653422 -4.471217 6.154702 7.301697 -31.363397 -0.022064 -81.734327 83.242482 -85.509785 0.315934 -25.155924 9.931345 0.002539 -0.003134 0.001484 -2.543298 -27.864155 -4.532595 109.909154 78.093983 118.729023 6.355424 -11.876170 -7.443498 -0.012870 -0.007788 -0.007525
0.400388 130.426298 55.723988 177.951147 -45.769206 -2.886898 3.995369 26.460828 4.019679 0.534737 4.548376 0.541066 0.870258 7.239333 0.896397 3.075660 21.660549 3.097874 -1.505878 6.456729 -6.747119 -0.009527 -19.005821 -7.295307 0.018509 -2.658996 0.360969 0.813292 -14.643782 -0.552776 77.582409 -82.140124 -67.300472 23.244329 16.849871 -0.381408 -10.319140 -4.846459 0.241641 4.947310 -12.200778 0.871051 42.714590 -73.112685 -72.806695 -4.166598 -5.895863 6.947966 7.289600 -31.384460 -0.033505 -81.832320 83.256911 -85.621247 0.321775 -25.146536 9.934359 -0.002863 -0.011441 -0.001674 -2.542333 -27.866939 -4.514735 109.915418 78.110613 118.714261 6.341231 -11.886218 -7.437072 -0.009450 -0.008452 -0.005525
0.406402 130.426053 55.723610 177.929034 -45.756224 -2.864379 4.004503 26.472383 4.025512 0.536236 4.552790 0.541241 0.867903 7.224208 0.888781 3.076672 21.663090 3.097406 -1.575781 6.246070 -7.022103 -0.008404 -19.251888 -7.635639 -0.045434 -2.612806 0.358868 0.402005 -14.437062 -0.387437 92.232029 -82.956727 -81.535482 22.708422 16.391804 -0.717402 -10.198014 -4.790005 0.344684 5.300757 -12.030593 0.824115 49.021389 -74.128063 -79.946883 -3.725145 -7.444794 7.935494 7.288867 -31.407165 -0.042233 -81.878196 83.257029 -85.663655 0.334979 -25.141772 9.922427 0.003477 -0.010286 0.002033 -2.528298 -27.878531 -4.511101 109.908151 78.115612 118.699293 6.341043 -11.889451 -7.439947 -0.012040 -0.009918 -0.007039
0.412575 130.425927 55.723928 177.903284 -45.747087 -2.837495 3.983498 26.484601 4.038822 0.533594 4.552292 0.540023 0.890010 7.216123 0.857117 3.075724 21.664356 3.096644 -1.649847 6.059258 -7.297833 0.000990 -19.453546 -7.983778 -0.144809 -2.540210 0.360679 0.100961 -14.318457 -0.297425 108.745691 -83.216133 -97.657894 22.266419 15.959834 -1.056200 -10.093087 -4.787570 0.421911 5.510805 -11.925055 0.884342 55.746314 -75.280449 -87.312780 -3.373781 -9.133161 9.167989 7.289582 -31.426146 -0.047471 -81.911801 83.260859 -85.704648 0.335381 -25.137647 9.920091 0.002171 -0.009531 0.001269 -2.526212 -27.881178 -4.487015 109.912709 78.136052 118.682532 6.339822 -11.894645 -7.455438 -0.006613 -0.005286 -0.003867
0.417149 130.425631 55.725086 177.876897 -45.741662 -2.801217 3.974706 26.479384 4.027895 0.537248 4.552433 0.533605 0.879010 7.220390 0.865237 3.030501 21.637204 3.114926 -1.684957 5.931407 -7.624733 0.017165 -19.608277 -8.338820 -0.171754 -2.471822 0.312032 -0.131070 -14.227370 -0.287338 124.379066 -82.876620 -112.963603 21.910759 15.548883 -1.422312 -9.959210 -4.808442 0.421887 5.578191 -11.891474 1.049764 63.322325 -76.390738 -95.318859 -3.212603 -10.915951 10.623421 7.297118 -31.441427 -0.061917 -81.961698 83.266181 -85.765136 0.327930 -25.136662 9.933329 0.000801 -0.008988 0.000468 -2.517145 -27.882008 -4.478924 109.868840 78.147691 118.619325 6.325920 -11.891612 -7.452537 -0.004866 -0.002389 -0.002845
0.419054 130.425344 55.726979 177.840746 -45.741859 -2.744692 3.978356 26.479552 3.996815 0.530254 4.549004 0.539169 0.829583 7.178449 0.907480 3.026840 21.652006 3.081007 -1.736275 5.839713 -7.927802 0.037853 -19.715984 -8.699223 -0.244188 -2.483493 0.304166 -0.222857 -14.119638 -0.376197 136.891715 -82.055420 -125.241915 21.660786 15.157935 -1.839250 -9.873973 -4.856123 0.424842 5.502585 -11.931940 1.301171 72.027145 -77.284207 -104.216757 -3.310693 -12.714615 12.250269 7.322917 -31.450818 -0.094602 -82.013124 83.274754 -85.825389 0.326514 -25.136250 9.933050 0.000382 -0.005972 0.000223 -2.513546 -27.874700 -4.482312 109.792230 78.160518 118.513173 6.316956 -11.875217 -7.461925 0.000863 0.003482 0.000505
0.426181 130.425414 55.730122 177.827535 -45.747977 -2.723034 3.949695 26.473345 3.998596 0.496127 4.508229 0.572622 0.848290 7.196124 0.875091 3.023440 21.672643 3.059056 -1.799497 5.762388 -8.203754 0.057647 -19.776822 -9.058335 -0.242819 -2.525908 0.296850 -0.289169 -14.067866 -0.519438 145.910610 -80.914851 -134.142603 21.537541 14.802338 -2.325381 -9.834705 -4.940358 0.435570 5.271004 -12.045680 1.614718 81.747696 -77.837641 -113.876886 -3.686457 -14.480968 13.979800 7.324317 -31.454793 -0.106846 -82.044204 83.283475 -85.860244 0.334421 -25.130765 9.924831 -0.003706 -0.007318 -0.002167 -2.532068 -27.864794 -4.477860 109.762639 78.165158 118.458746 6.328084 -11.865536 -7.471772 -0.003553 0.011678 -0.002078
0.431467 130.427609 55.732025 177.801664 -45.773028 -2.682515 3.925355 26.470322 3.995364 0.506679 4.520399 0.555576 0.831695 7.166305 0.892366 3.017704 21.698671 3.040395 -1.859005 5.719328 -8.476905 0.072101 -19.791241 -9.406020 -0.218516 -2.584765 0.288811 -0.258162 -14.060290 -0.720330 151.980615 -79.567762 -140.227345 21.522285 14.483281 -2.899680 -9.822115 -5.033679 0.426877 4.886886 -12.230217 1.965606 91.958442 -78.009824 -123.796237 -4.309356 -16.209429 15.751334 7.347871 -31.434674 -0.128553 -82.068453 83.289191 -85.885219 0.340251 -25.130009 9.922279 -0.005545 -0.005594 -0.003242 -2.533286 -27.839689 -4.491290 109.722661 78.170501 118.404344 6.330520 -11.826810 -7.480658 -0.003967 0.019015 -0.002320
0.434646 130.430610 55.734022 177.753291 -45.809556 -2.615771 3.912382 26.474719 3.981424 0.517440 4.535490 0.538729 0.830243 7.160059 0.891484 2.981519 21.614147 3.084910 -1.899958 5.789747 -8.799509 0.081826 -19.763227 -9.735197 -0.157081 -2.575212 0.232249 -0.135329 -14.090883 -0.965449 155.834620 -78.097837 -144.227749 21.565975 14.167805 -3.559154 -9.812880 -5.059374 0.331407 4.387185 -12.471182 2.335393 102.076635 -77.843084 -133.452849 -5.077087 -17.928432 17.521338 7.393239 -31.403930 -0.158769 -82.120325 83.292730 -85.941548 0.346258 -25.125288 9.923647 -0.006013 -0.000032 -0.003516 -2.516462 -27.803876 -4.520607 109.632305 78.182575 118.313939 6.329505 -11.772931 -7.507319 0.004662 0.011089 0.002726
0.442403 130.428957 55.742043 177.743331 -45.824085 -2.594814 3.882165 26.448664 3.985546 0.497173 4.487550 0.560144 0.837669 7.170241 0.871032 2.974090 21.600806 3.080330 -1.948506 5.865278 -9.076528 0.091237 -19.699978 -10.043526 -0.102939 -2.599790 0.217200 0.060366 -14.152702 -1.243698 158.205657 -76.589260 -146.850442 21.608674 13.805276 -4.286670 -9.850296 -5.111127 0.249320 3.818973 -12.742964 2.721607 111.606146 -77.400037 -142.428411 -5.889620 -19.694650 19.260853 7.397639 -31.397996 -0.161197 -82.199158 83.293645 -86.030374 0.348135 -25.119330 9.926111 -0.008157 0.001485 -0.004770 -2.541639 -27.792177 -4.526047 109.613812 78.187326 118.281047 6.336185 -11.749814 -7.521231 0.002089 0.017011 0.001222
